<?xml version="1.0" standalone="no"?>
<!DOCTYPE svg PUBLIC "-//W3C//DTD SVG 20010904//EN"
 "http://www.w3.org/TR/2001/REC-SVG-20010904/DTD/svg10.dtd">
<svg version="1.0" xmlns="http://www.w3.org/2000/svg"
 width="2363.000000pt" height="2363.000000pt" viewBox="0 0 2363.000000 2363.000000"
 preserveAspectRatio="xMidYMid meet">
<metadata>
Created by potrace 1.11, written by Peter Selinger 2001-2013
</metadata>
<g transform="translate(0.000000,2363.000000) scale(0.100000,-0.100000)"
fill="#000000" stroke="none">
<path d="M9904 22959 c-97 -23 -116 -32 -153 -74 -35 -41 -46 -64 -55 -116 -3
-19 -8 -45 -11 -59 -2 -14 -10 -50 -15 -80 -6 -30 -20 -93 -32 -140 -11 -47
-21 -89 -22 -95 -18 -81 -159 -458 -288 -770 -97 -234 -331 -815 -381 -945
-56 -147 -138 -401 -162 -505 -2 -11 -9 -38 -14 -60 -5 -22 -12 -51 -14 -65
-3 -14 -8 -43 -12 -65 -4 -22 -9 -49 -11 -60 -2 -11 -6 -44 -10 -73 -3 -29 -7
-61 -9 -71 -19 -99 -28 -487 -13 -598 l6 -53 -86 89 c-129 130 -363 323 -471
387 -17 10 -31 22 -31 26 0 4 -4 8 -8 8 -5 0 -47 23 -93 51 -46 28 -158 88
-249 133 -142 70 -199 97 -315 146 -25 11 -255 102 -315 125 -25 9 -58 23 -75
30 -37 16 -219 86 -505 195 -604 229 -836 338 -1111 520 -127 84 -199 80 -331
-18 -71 -53 -94 -82 -113 -141 -20 -58 -19 -66 34 -251 48 -169 77 -301 86
-385 4 -33 8 -67 11 -75 2 -8 6 -40 9 -70 3 -30 7 -68 10 -85 2 -16 6 -57 10
-90 3 -33 8 -76 10 -95 6 -43 12 -118 20 -230 3 -47 8 -101 10 -120 2 -19 7
-73 10 -120 3 -47 8 -105 10 -130 2 -25 7 -79 10 -120 4 -41 8 -86 10 -100 2
-14 6 -61 10 -105 3 -44 8 -98 11 -120 2 -22 7 -67 10 -100 14 -160 22 -232
39 -340 3 -16 7 -48 10 -70 4 -22 8 -47 10 -55 3 -8 7 -33 10 -55 4 -22 17
-87 31 -145 86 -368 253 -759 420 -981 l42 -57 -61 28 c-59 26 -265 95 -315
105 -13 2 -32 7 -42 10 -10 3 -29 8 -42 10 -13 3 -48 10 -78 16 -120 24 -147
29 -195 35 -27 4 -58 8 -68 10 -137 24 -772 23 -902 -2 -11 -2 -54 -6 -95 -10
-41 -3 -86 -7 -100 -9 -14 -2 -63 -7 -110 -11 -47 -3 -98 -8 -115 -10 -16 -2
-59 -6 -95 -9 -36 -3 -81 -8 -100 -10 -19 -2 -62 -7 -95 -10 -33 -4 -71 -8
-85 -10 -14 -2 -58 -7 -99 -10 -41 -4 -82 -8 -92 -10 -9 -2 -61 -7 -115 -10
-55 -4 -106 -9 -114 -10 -9 -2 -63 -6 -120 -10 -58 -3 -130 -8 -160 -10 -81
-6 -317 -6 -354 -1 -41 7 -173 17 -260 21 -117 6 -169 -32 -238 -171 -32 -66
-40 -93 -40 -136 0 -73 19 -107 131 -228 52 -55 123 -136 159 -178 63 -76 379
-541 403 -594 7 -16 15 -28 19 -28 4 0 10 -8 14 -17 3 -10 31 -58 62 -108 31
-49 65 -104 75 -122 37 -64 424 -680 482 -768 161 -240 331 -449 503 -614 199
-192 339 -302 514 -406 89 -52 92 -55 59 -56 -18 0 -41 -2 -49 -3 -8 -2 -35
-6 -60 -9 -66 -9 -81 -12 -250 -52 -138 -33 -482 -162 -620 -233 -220 -114
-436 -246 -690 -423 -36 -25 -117 -81 -180 -124 -150 -102 -217 -149 -380
-265 -74 -52 -202 -140 -285 -195 -82 -55 -152 -102 -155 -105 -3 -3 -14 -10
-25 -17 -11 -7 -83 -50 -160 -97 -133 -81 -256 -143 -410 -207 -99 -41 -130
-62 -162 -110 -24 -36 -28 -53 -31 -134 -7 -150 29 -235 116 -278 15 -8 86
-33 157 -56 72 -23 139 -46 150 -50 11 -5 61 -25 110 -46 118 -49 624 -311
705 -365 8 -6 24 -14 35 -20 11 -5 43 -23 70 -40 28 -16 56 -33 64 -37 8 -3
71 -39 140 -78 69 -39 142 -78 161 -88 19 -10 51 -27 70 -39 38 -22 53 -31
230 -129 309 -170 608 -301 850 -374 95 -28 374 -92 435 -99 22 -2 63 -7 90
-11 82 -11 116 -13 199 -14 l79 -1 -104 -69 c-217 -144 -488 -407 -677 -657
-115 -154 -255 -377 -392 -629 -18 -33 -45 -82 -60 -110 -15 -27 -49 -90 -75
-140 -26 -49 -55 -103 -65 -120 -16 -29 -72 -135 -195 -370 -32 -60 -68 -128
-80 -150 -12 -22 -39 -71 -59 -108 -42 -77 -52 -95 -131 -232 -95 -166 -182
-293 -290 -425 -124 -153 -131 -164 -143 -218 -11 -49 2 -114 37 -175 100
-176 145 -194 386 -153 211 37 314 43 654 40 185 -1 392 -5 461 -8 413 -19
725 -28 1010 -30 260 -1 438 8 590 29 19 3 53 7 75 10 124 17 382 81 535 132
80 27 238 90 255 102 6 4 23 12 38 19 l28 12 -27 -48 c-15 -26 -32 -56 -39
-67 -7 -11 -27 -54 -44 -95 -18 -41 -38 -88 -46 -105 -37 -84 -144 -438 -159
-525 -2 -14 -7 -43 -11 -65 -4 -22 -9 -49 -11 -59 -6 -31 -23 -167 -29 -221
-21 -212 -24 -298 -30 -800 -15 -1301 -16 -1324 -86 -1669 -33 -162 -34 -203
-8 -256 42 -85 196 -180 292 -180 55 0 88 17 227 121 106 79 283 199 293 199
3 0 42 21 88 46 140 78 470 241 699 346 266 122 859 416 988 490 419 238 736
505 992 838 l25 32 -1 -159 c-1 -87 5 -208 12 -267 19 -157 27 -204 58 -361
55 -270 195 -634 457 -1183 33 -68 59 -125 59 -127 0 -1 39 -83 86 -181 48
-99 99 -206 114 -239 15 -33 43 -94 63 -135 57 -125 163 -369 202 -469 31 -81
98 -303 109 -366 16 -85 49 -166 82 -198 60 -58 215 -91 313 -67 73 17 111 58
182 195 35 66 73 137 86 157 13 21 23 40 23 43 0 36 430 602 729 960 69 83
414 523 483 615 213 289 331 491 451 776 49 118 123 328 133 379 2 11 10 49
18 85 9 36 17 76 19 90 2 21 9 13 39 -45 43 -84 57 -111 82 -150 183 -287 282
-413 485 -615 133 -133 226 -218 321 -296 19 -16 37 -31 40 -34 4 -5 198 -157
319 -251 25 -19 109 -84 186 -145 77 -60 150 -116 162 -124 39 -28 277 -212
403 -314 269 -216 387 -324 525 -482 153 -176 177 -193 259 -194 47 -1 51 0
130 25 82 26 146 73 173 126 21 41 23 61 28 269 2 124 7 236 9 250 3 14 10 61
16 105 16 112 19 133 31 195 6 30 12 69 14 85 6 39 83 419 95 465 5 19 11 49
14 65 2 17 21 109 41 205 20 96 39 184 41 195 2 11 6 31 9 45 3 14 7 36 10 50
2 14 11 57 19 95 9 39 17 81 20 95 2 14 7 36 10 50 3 14 7 39 10 55 2 17 9 54
15 84 20 100 43 269 59 426 9 92 9 457 0 565 -21 250 -78 527 -128 620 -17 32
-8 33 25 4 202 -175 553 -368 880 -484 104 -36 338 -104 440 -127 39 -8 88
-19 110 -24 22 -5 63 -13 90 -19 28 -5 61 -11 75 -14 14 -3 36 -7 50 -10 14
-2 72 -14 130 -26 58 -12 116 -23 130 -26 14 -2 45 -9 70 -14 25 -5 61 -12 80
-15 19 -4 53 -10 75 -15 22 -5 57 -11 77 -14 21 -3 57 -10 80 -15 24 -5 61
-12 83 -15 69 -10 513 -103 665 -139 143 -35 315 -92 480 -162 107 -45 165
-53 223 -31 69 26 181 144 205 215 24 70 16 104 -64 269 -42 86 -86 177 -96
202 -19 42 -94 256 -103 290 -2 8 -24 83 -49 165 -42 141 -66 227 -72 250 -1
6 -23 89 -49 185 -26 96 -48 182 -50 190 -4 19 -80 297 -100 365 -8 28 -41
145 -74 260 -145 512 -276 809 -509 1155 -145 214 -282 361 -451 480 -243 173
-517 312 -830 421 -73 25 -273 81 -336 93 -11 2 -49 11 -85 19 -108 25 -267
48 -430 62 -30 3 -91 8 -135 12 -226 22 -617 3 -688 -34 -26 -13 -57 -51 -147
-184 -19 -28 -40 -56 -45 -62 -6 -7 -42 -50 -82 -97 -39 -47 -89 -103 -111
-125 -98 -98 -172 -165 -237 -216 -88 -68 -133 -115 -142 -148 -10 -35 -10
-400 0 -481 8 -76 14 -113 21 -155 3 -16 8 -50 11 -75 15 -111 79 -407 116
-533 42 -148 122 -370 162 -452 14 -27 24 -51 23 -52 -1 -1 -45 39 -97 90
-110 108 -203 188 -342 295 -114 89 -440 296 -592 377 -130 69 -376 166 -424
167 -27 1 -119 -39 -216 -94 -38 -21 -72 -37 -210 -99 -108 -48 -335 -116
-475 -144 -141 -27 -157 -39 -228 -163 -93 -166 -142 -279 -209 -482 -47 -147
-122 -405 -133 -459 -5 -25 -11 -56 -14 -67 -2 -12 -7 -38 -10 -59 -4 -20 -8
-40 -10 -44 -2 -3 -7 -35 -11 -71 -4 -36 -9 -67 -10 -70 -2 -3 -6 -35 -10 -71
-3 -35 -8 -73 -10 -84 -2 -11 -4 -31 -4 -45 -1 -14 -31 50 -70 147 -69 172
-164 364 -257 521 -27 46 -53 91 -59 100 -108 183 -211 327 -321 448 -16 17
-46 50 -67 74 -59 64 -81 70 -274 68 -224 -1 -373 12 -548 47 -75 15 -122 26
-209 50 -63 17 -114 25 -137 22 -72 -9 -335 -208 -519 -389 -304 -302 -497
-537 -659 -806 -24 -39 -44 -72 -45 -72 -2 0 3 28 10 63 40 200 49 628 19 897
-2 19 -6 67 -9 105 -3 39 -8 88 -11 110 -3 22 -8 55 -10 73 -12 80 -17 109
-25 142 -5 19 -11 46 -14 60 -3 14 -12 50 -21 80 -9 30 -22 78 -30 105 -30
111 -45 127 -150 175 -213 97 -336 166 -490 274 -55 39 -102 73 -105 76 -3 3
-34 30 -70 60 -36 30 -74 63 -85 73 -43 40 -95 59 -144 53 -226 -27 -473 -87
-641 -153 -8 -4 -17 -7 -20 -8 -3 -1 -18 -7 -33 -13 -16 -7 -32 -12 -35 -12
-14 0 -278 -108 -357 -146 -90 -43 -318 -167 -383 -207 l-42 -27 49 69 c27 38
57 82 65 97 9 16 31 52 48 79 50 81 68 114 128 230 137 269 294 679 324 845 2
14 7 36 10 50 11 46 17 84 23 141 7 67 -3 89 -91 197 -98 121 -213 302 -294
465 -41 81 -75 154 -76 160 -2 7 -8 25 -14 40 -7 16 -12 30 -12 33 0 9 -45
100 -55 110 -48 49 -380 155 -562 180 -26 3 -50 8 -53 9 -3 2 -34 6 -69 10
-34 4 -70 8 -79 10 -9 1 -46 6 -82 10 -36 4 -72 8 -80 10 -99 19 -526 26 -690
11 l-85 -7 60 29 c75 36 260 146 385 228 75 50 347 258 370 284 3 3 55 49 115
101 61 53 141 130 179 170 89 95 225 265 237 296 13 34 11 77 -6 158 -9 39
-18 86 -21 105 -3 19 -7 42 -9 50 -2 8 -7 51 -11 95 -3 44 -8 89 -10 100 -7
29 -5 385 1 395 3 4 8 53 11 107 8 123 6 127 -118 254 -151 154 -262 245 -519
422 -199 136 -459 282 -629 353 -33 14 -47 24 -35 25 11 0 56 2 100 4 232 10
373 23 515 50 41 8 91 17 110 20 19 4 53 10 75 15 22 5 56 12 75 15 19 3 64
13 100 21 36 9 75 18 88 20 94 19 438 151 475 182 23 20 40 59 67 147 52 170
141 370 240 540 26 44 79 127 118 185 51 75 72 115 73 140 2 29 -39 208 -58
260 -3 8 -7 20 -9 25 -31 126 -238 567 -367 782 -53 89 -230 349 -246 363 -3
3 -23 26 -44 52 -21 26 -43 53 -50 61 -54 58 -53 61 3 28 73 -43 246 -125 370
-175 36 -15 74 -31 85 -36 37 -17 199 -69 345 -109 80 -23 159 -45 175 -50 32
-10 199 -47 250 -55 101 -16 184 -25 293 -31 105 -6 130 6 232 110 170 175
413 358 625 469 92 49 129 76 147 111 13 23 53 199 63 275 4 30 9 62 10 71 19
103 28 701 12 844 -14 126 -18 160 -22 185 -2 14 -7 45 -10 70 -4 25 -13 78
-21 119 -7 41 -12 76 -11 78 2 1 26 -28 53 -65 160 -218 485 -551 718 -735 34
-27 68 -54 77 -61 89 -72 304 -197 348 -203 25 -4 70 6 146 31 121 41 370 101
453 110 28 3 76 9 105 12 28 3 66 7 82 9 17 2 79 5 139 6 125 2 167 11 199 43
26 27 96 111 117 140 8 12 19 26 25 33 35 35 175 260 251 403 190 359 269 557
373 940 l9 35 2 -42 c2 -24 3 -46 4 -50 1 -5 6 -33 11 -63 5 -30 9 -57 10 -60
1 -3 5 -23 9 -45 21 -109 100 -394 140 -502 150 -407 220 -553 382 -799 60
-91 84 -106 189 -118 98 -11 139 -17 155 -21 8 -2 29 -7 47 -10 94 -16 296
-69 358 -95 11 -4 43 -16 70 -25 46 -16 75 -28 195 -83 70 -32 112 -42 145
-36 46 8 319 146 422 213 80 52 354 251 422 307 130 106 328 295 435 414 26
30 44 46 39 35 -6 -11 -22 -65 -38 -120 -15 -55 -30 -107 -33 -115 -7 -19 -6
-17 -17 -65 -5 -22 -9 -42 -10 -45 -4 -17 -16 -69 -20 -88 -2 -13 -6 -31 -9
-40 -3 -9 -7 -33 -10 -52 -3 -19 -8 -46 -10 -60 -7 -38 -25 -178 -31 -245 -3
-33 -7 -73 -10 -90 -26 -198 -25 -488 2 -690 7 -57 42 -97 141 -164 192 -130
444 -368 572 -541 99 -134 98 -134 355 -134 246 -1 346 8 635 59 14 3 39 7 55
10 501 89 961 277 1365 558 159 112 290 228 387 344 45 54 183 256 183 269 0
4 6 15 14 23 26 30 173 326 218 441 77 194 168 501 204 685 4 25 53 253 59
280 3 11 8 36 11 55 11 59 26 131 53 255 10 50 22 107 25 127 3 21 10 57 15
80 6 24 12 57 15 73 23 127 90 439 133 615 8 36 17 72 18 80 2 8 4 15 5 15 2
0 4 7 19 71 19 74 93 275 152 409 38 86 44 124 28 187 -9 42 -24 63 -83 122
-127 129 -198 141 -356 62 -184 -93 -434 -193 -527 -212 -12 -2 -35 -9 -50
-15 -16 -6 -35 -12 -43 -14 -8 -2 -87 -24 -175 -48 -88 -25 -234 -64 -325 -87
-91 -23 -199 -51 -240 -61 -41 -11 -84 -22 -95 -24 -11 -3 -69 -18 -130 -35
-60 -17 -121 -33 -134 -36 -14 -3 -108 -28 -210 -55 -459 -124 -753 -242
-1051 -419 -92 -55 -286 -184 -300 -199 -3 -3 -27 -24 -55 -46 -27 -21 -67
-56 -87 -77 -21 -21 -38 -35 -38 -32 0 3 7 32 15 63 7 31 17 79 21 106 3 28 8
53 10 56 25 43 25 674 -1 808 -2 12 -9 55 -14 94 -6 40 -13 83 -16 97 -3 14
-8 39 -11 55 -31 170 -187 748 -334 1235 -17 58 -33 114 -35 124 -3 11 -13 47
-24 80 -17 53 -26 87 -36 131 -2 6 -22 82 -45 170 -23 88 -44 171 -47 185 -2
14 -9 45 -14 70 -14 60 -28 143 -35 205 -3 28 -7 64 -9 80 -2 17 -7 66 -10
110 -3 44 -8 96 -12 115 -4 19 -7 38 -7 41 -3 23 -58 82 -97 103 -60 32 -162
59 -219 57 -88 -3 -120 -28 -252 -205 -127 -168 -370 -422 -618 -646 -63 -57
-140 -126 -171 -154 -30 -28 -89 -80 -129 -116 -40 -36 -81 -72 -90 -80 -9 -8
-65 -60 -126 -115 -60 -55 -136 -124 -169 -155 -32 -30 -93 -86 -135 -125
-206 -190 -393 -392 -528 -572 -145 -191 -336 -530 -392 -695 -24 -70 -40 -87
-40 -43 0 36 -80 273 -133 396 -49 111 -133 279 -182 364 -33 56 -194 297
-225 335 -11 14 -57 72 -103 130 -75 94 -601 695 -651 745 -22 21 -210 231
-327 365 -105 120 -250 299 -305 375 -59 82 -124 183 -124 192 0 3 -6 14 -14
22 -14 16 -45 69 -73 123 -18 36 -67 85 -103 103 -41 21 -127 23 -206 4z"/>
<path d="M13754 14459 c-83 -10 -132 -24 -206 -59 -96 -45 -121 -63 -201 -145
-70 -71 -119 -152 -154 -254 -36 -105 -41 -272 -12 -381 66 -245 252 -423 509
-487 8 -3 60 -7 115 -10 81 -4 116 -1 182 15 519 131 692 757 313 1133 -146
145 -342 212 -546 188z"/>
<path d="M9245 13443 c-145 -29 -307 -130 -394 -246 -38 -50 -99 -162 -106
-195 -2 -10 -9 -33 -15 -52 -21 -64 -20 -247 0 -328 115 -442 622 -646 1010
-406 285 176 394 544 253 853 -84 187 -271 335 -473 376 -65 14 -205 13 -275
-2z"/>
<path d="M11670 13144 c-309 -84 -515 -356 -505 -669 6 -191 63 -322 195 -455
138 -139 294 -203 485 -199 382 7 674 317 660 698 -4 85 -27 197 -46 216 -5 5
-9 16 -9 24 0 29 -90 158 -152 217 -72 69 -166 125 -266 158 -88 28 -275 34
-362 10z"/>
<path d="M18295 12568 c-228 -30 -423 -166 -520 -363 -56 -112 -74 -195 -70
-322 3 -120 26 -209 77 -303 157 -285 500 -421 803 -318 330 112 518 445 444
783 -19 87 -56 173 -108 249 -67 98 -217 208 -332 245 -97 31 -201 41 -294 29z"/>
<path d="M14436 12033 c-2 -3 -19 -7 -38 -9 -169 -25 -366 -172 -455 -341
-100 -188 -107 -415 -18 -608 28 -62 117 -176 174 -224 63 -52 209 -131 243
-131 11 0 28 -5 40 -11 31 -17 218 -19 288 -2 242 56 423 214 500 438 26 77
34 131 33 230 -1 181 -66 336 -192 463 -45 45 -163 132 -180 132 -4 0 -21 7
-37 14 -59 30 -151 48 -251 51 -57 1 -105 0 -107 -2z"/>
<path d="M12248 9900 c-246 -50 -447 -242 -514 -490 -23 -86 -23 -244 -1 -330
62 -241 248 -426 491 -489 64 -17 101 -20 185 -17 182 7 317 64 441 186 127
124 195 269 207 438 15 220 -88 448 -262 579 -160 121 -348 163 -547 123z"/>
</g>
</svg>
